<?xml version="1.0" encoding="utf-8"?>
<!-- Generator: Adobe Illustrator 21.0.0, SVG Export Plug-In . SVG Version: 6.00 Build 0)  -->
<svg version="1.1" id="Layer_1" xmlns="http://www.w3.org/2000/svg" xmlns:xlink="http://www.w3.org/1999/xlink" x="0px" y="0px"
	 viewBox="0 0 1338 640" enable-background="new 0 0 1338 640" xml:space="preserve">
<g>
	<g>
		<polygon fill="#FFFFFF" points="473,279.2 454,317.2 567.7,317.2 567.7,279.2 		"/>
		<polygon fill="#FFFFFF" points="510.9,203.4 491.9,241.3 567.7,241.3 567.7,203.4 		"/>
		<polygon fill="#FFFFFF" points="435,355.1 416.1,393 567.7,393 567.7,355.1 		"/>
		<polygon fill="#FFFFFF" points="491.9,241.3 321.2,241.3 321.2,431 397.1,431 416.1,393 359.2,393 359.2,355.1 435,355.1 
			454,317.2 359.2,317.2 359.2,279.2 473,279.2 		"/>
	</g>
	<g>
		<path fill="#FFFFFF" d="M759.2,269.4L732,296c-10.8-12.4-26.2-19.9-45.7-19.9c-34.6,0-59.8,25.4-59.8,62.3
			c0,38.5,26.2,62.9,59.1,62.9c31,0,48.8-14.7,53.8-41.8h-48.1v-31.5h87.1c0.4,3.6,0.5,7,0.5,10.7c0,57.3-38.8,97.8-92.5,97.8
			c-52.5,0-99-36.9-99-98c0-57.2,41.8-98.2,99.9-98.2C717.7,240.3,742.3,251,759.2,269.4z"/>
		<path fill="#FFFFFF" d="M937,433.2L835.3,306.8l-0.1,126.4h-37.7V243.9h35.2l101.9,126.4V243.9h37.8v189.3H937z"/>
		<path fill="#FFFFFF" d="M1191.2,338.5c0,56.7-41.2,98.2-99.5,98.2c-58.4,0-99.4-41.5-99.4-98.2c0-56.6,41-98.2,99.4-98.2
			C1149.9,240.3,1191.2,281.8,1191.2,338.5z M1031.6,338.5c0,36.8,25.3,61.9,60,61.9c35,0,60-25.1,60-61.9c0-36.8-25-61.9-60-61.9
			C1056.9,276.5,1031.6,301.7,1031.6,338.5z"/>
		<path fill="#FFFFFF" d="M243.4,321.8l-10.7-1.8c-11-1.8-20.4-3.7-27.3-6.9c-4.4-2-7.6-4.5-9.5-7.6c-1.3-2.1-2.2-4.5-2.2-7.4
			c0-9.7,7.1-16.6,18.1-20.1c4.5-1.4,9.7-2.3,15.4-2.5c0.9,0,1.8-0.1,2.8-0.1c20.7,0,38.7,6.9,53.7,16.1l17.8-30.8
			c-18.4-10.9-35.6-16.9-54.7-19.1c-4.4-0.5-8.8-0.8-13.4-0.9c-1.4,0-2.8-0.1-4.3-0.1c-40.3,0-75.5,20.6-75.5,60
			c0,19.7,8.2,32.7,21.3,41.3c3.3,2.2,6.8,4.1,10.6,5.7c7.7,3.3,16.3,5.6,25.8,7.2l12,1.9c26.4,4.3,40.1,9.1,40.1,22.2
			c0,14.6-16.1,22.9-37.2,22.9c-24.5,0-46.5-9.6-60.3-20.4L148,412.8c20.3,15.6,50.2,23.7,78.3,23.7c40.7,0,77.5-20,77.5-61.7
			C303.7,342,277.4,327.2,243.4,321.8z"/>
	</g>
</g>
</svg>
