<svg width="1420" height="1687" xmlns="http://www.w3.org/2000/svg">
 <!-- Created with Method Draw - http://github.com/duopixel/Method-Draw/ -->

 <g>
  <title>background</title>
  <rect x="-1" y="-1" width="3157.610766" height="3750.954481" id="canvas_background" fill="none"/>
  <g id="canvasGrid" display="none">
   <rect id="svg_2" width="100%" height="100%" x="0" y="0" stroke-width="0" fill="url(#gridpattern)"/>
  </g>
 </g>
 <g>
  <title>Layer 1</title>
  <ellipse fill="none" stroke="#ffffff" stroke-width="22" cx="138.499999" cy="91.000002" id="svg_1" rx="30.999999" ry="30.999999"/>
  <ellipse fill="none" stroke="#ffffff" stroke-width="22" cx="219.499999" cy="238.000002" id="svg_4" rx="30.999999" ry="30.999999"/>
  <ellipse fill="none" stroke="#ffffff" stroke-width="22" cx="82.499999" cy="295.000002" id="svg_5" rx="30.999999" ry="30.999999"/>
  <ellipse fill="none" stroke="#ffffff" stroke-width="22" cx="346.499999" cy="344.000002" id="svg_6" rx="30.999999" ry="30.999999"/>
  <ellipse fill="none" stroke="#ffffff" stroke-width="22" cx="1245.499999" cy="110.000002" id="svg_18" rx="30.999999" ry="30.999999"/>
  <ellipse fill="none" stroke="#ffffff" stroke-width="22" cx="1172.499999" cy="250.000002" id="svg_19" rx="30.999999" ry="30.999999"/>
  <ellipse fill="none" stroke="#ffffff" stroke-width="22" cx="1324.499999" cy="295.000002" id="svg_20" rx="30.999999" ry="30.999999"/>
  <path d="m127.5,127l-34,137" id="svg_3"/>
  <path d="m127.5,127l-34,137" id="svg_13"/>
  <line fill="none" stroke="#ffffff" stroke-width="22" x1="127.5" y1="127" x2="93.5" y2="264" id="svg_29" stroke-linejoin="null" stroke-linecap="null" transform="rotate(0.468016, 110.5, 195.5)"/>
  <line fill="none" stroke="#ffffff" stroke-width="22" x1="48.5" y1="281" x2="-35.5" y2="236" id="svg_31" stroke-linejoin="null" stroke-linecap="null"/>
  <line fill="none" stroke="#ffffff" stroke-width="22" stroke-opacity="null" fill-opacity="null" x1="1233.5" y1="138" x2="1188.5" y2="225" id="svg_50" stroke-linejoin="null" stroke-linecap="null"/>
  <line fill="none" stroke="#ffffff" stroke-width="22" stroke-opacity="null" fill-opacity="null" x1="1181.5" y1="282" x2="1215.5" y2="408" id="svg_51" stroke-linejoin="null" stroke-linecap="null"/>
  <ellipse fill="none" stroke="#ffffff" stroke-width="22" cx="346.499999" cy="344.000002" id="svg_7" rx="30.999999" ry="30.999999"/>
  <ellipse fill="none" stroke="#ffffff" stroke-width="22" cx="192.499999" cy="492.000002" id="svg_8" rx="30.999999" ry="30.999999"/>
  <ellipse fill="none" stroke="#ffffff" stroke-width="22" cx="192.499999" cy="492.000002" id="svg_9" rx="30.999999" ry="30.999999"/>
  <ellipse fill="none" stroke="#ffffff" stroke-width="22" cx="60.499999" cy="641.000002" id="svg_10" rx="30.999999" ry="30.999999"/>
  <ellipse fill="none" stroke="#ffffff" stroke-width="22" cx="60.499999" cy="641.000002" id="svg_11" rx="30.999999" ry="30.999999"/>
  <ellipse fill="none" stroke="#ffffff" stroke-width="22" cx="257.499999" cy="689.000002" id="svg_12" rx="30.999999" ry="30.999999"/>
  <line stroke-linecap="null" stroke-linejoin="null" id="svg_14" y2="470" x2="216.5" y1="367" x1="322.5" fill-opacity="null" stroke-opacity="null" stroke-width="22" stroke="#ffffff" fill="none"/>
  <line stroke-linecap="null" stroke-linejoin="null" id="svg_15" y2="296" x2="-45.5" y1="610" x1="49.5" fill-opacity="null" stroke-opacity="null" stroke-width="22" stroke="#ffffff" fill="none"/>
  <line stroke-linecap="null" stroke-linejoin="null" id="svg_16" y2="658" x2="245.5" y1="525" x1="200.5" fill-opacity="null" stroke-opacity="null" stroke-width="22" stroke="#ffffff" fill="none"/>
  <ellipse fill="none" stroke="#ffffff" stroke-width="22" cx="126.499999" cy="823.000002" id="svg_17" rx="30.999999" ry="30.999999"/>
  <ellipse fill="none" stroke="#ffffff" stroke-width="22" cx="126.499999" cy="823.000002" id="svg_21" rx="30.999999" ry="30.999999"/>
  <ellipse fill="none" stroke="#ffffff" stroke-width="22" cx="226.499999" cy="951.000002" id="svg_22" rx="30.999999" ry="30.999999"/>
  <ellipse fill="none" stroke="#ffffff" stroke-width="22" cx="107.499999" cy="1127.000002" id="svg_23" rx="30.999999" ry="30.999999"/>
  <ellipse fill="none" stroke="#ffffff" stroke-width="22" cx="321.499999" cy="1098.000002" id="svg_24" rx="30.999999" ry="30.999999"/>
  <ellipse fill="none" stroke="#ffffff" stroke-width="22" cx="176.499999" cy="1464.000002" id="svg_25" rx="30.999999" ry="30.999999"/>
  <ellipse fill="none" stroke="#ffffff" stroke-width="22" cx="287.499999" cy="1277.000002" id="svg_26" rx="30.999999" ry="30.999999"/>
  <ellipse fill="none" stroke="#ffffff" stroke-width="22" cx="127.499999" cy="1634.000002" id="svg_28" rx="30.999999" ry="30.999999"/>
  <ellipse fill="none" stroke="#ffffff" stroke-width="22" cx="333.499999" cy="1533.000002" id="svg_30" rx="30.999999" ry="30.999999"/>
  <line transform="rotate(0.408347, 142.5, 1297.5)" stroke-linecap="null" stroke-linejoin="null" id="svg_34" y2="1433" x2="170.5" y1="1162" x1="114.5" fill-opacity="null" stroke-opacity="null" stroke-width="22" stroke="#ffffff" fill="none"/>
  <line stroke-linecap="null" stroke-linejoin="null" id="svg_36" y2="1070" x2="303.5" y1="976" x1="240.5" fill-opacity="null" stroke-opacity="null" stroke-width="22" stroke="#ffffff" fill="none"/>
  <line stroke-linecap="null" stroke-linejoin="null" id="svg_37" y2="1240" x2="293.5" y1="1126" x1="318.5" fill-opacity="null" stroke-opacity="null" stroke-width="22" stroke="#ffffff" fill="none"/>
  <line stroke-linecap="null" stroke-linejoin="null" id="svg_39" y2="993" x2="-29.5" y1="847" x1="103.5" fill-opacity="null" stroke-opacity="null" stroke-width="22" stroke="#ffffff" fill="none"/>
  <line stroke-linecap="null" stroke-linejoin="null" id="svg_40" y2="1546" x2="304.5" y1="1622" x1="159.5" fill-opacity="null" stroke-opacity="null" stroke-width="22" stroke="#ffffff" fill="none"/>
  <line stroke-linecap="null" stroke-linejoin="null" id="svg_41" y2="1571" x2="-37.5" y1="1626" x1="93.5" fill-opacity="null" stroke-opacity="null" stroke-width="22" stroke="#ffffff" fill="none"/>
  <ellipse fill="none" stroke="#ffffff" stroke-width="22" cx="1077.499999" cy="513.000002" id="svg_42" rx="30.999999" ry="30.999999"/>
  <ellipse fill="none" stroke="#ffffff" stroke-width="22" cx="1238.499999" cy="694.000002" id="svg_43" rx="30.999999" ry="30.999999"/>
  <ellipse fill="none" stroke="#ffffff" stroke-width="22" cx="1117.499999" cy="858.000002" id="svg_44" rx="30.999999" ry="30.999999"/>
  <ellipse fill="none" stroke="#ffffff" stroke-width="22" cx="1338.499999" cy="470.000002" id="svg_45" rx="30.999999" ry="30.999999"/>
  <ellipse fill="none" stroke="#ffffff" stroke-width="22" cx="1336.499999" cy="896.000002" id="svg_46" rx="30.999999" ry="30.999999"/>
  <ellipse fill="none" stroke="#ffffff" stroke-width="22" cx="1167.499999" cy="1153.000002" id="svg_47" rx="30.999999" ry="30.999999"/>
  <ellipse fill="none" stroke="#ffffff" stroke-width="22" cx="1326.499999" cy="1444.000002" id="svg_48" rx="30.999999" ry="30.999999"/>
  <ellipse fill="none" stroke="#ffffff" stroke-width="22" cx="1150.499999" cy="1344.000002" id="svg_49" rx="30.999999" ry="30.999999"/>
  <ellipse fill="none" stroke="#ffffff" stroke-width="22" cx="1050.499999" cy="1585.000002" id="svg_53" rx="30.999999" ry="30.999999"/>
  <ellipse fill="none" stroke="#ffffff" stroke-width="22" cx="1343.499999" cy="1620.000002" id="svg_54" rx="30.999999" ry="30.999999"/>
  <line stroke-linecap="null" stroke-linejoin="null" id="svg_55" y2="1436" x2="1300.5" y1="1361" x1="1177.5" fill-opacity="null" stroke-opacity="null" stroke-width="22" stroke="#ffffff" fill="none"/>
  <line stroke-linecap="null" stroke-linejoin="null" id="svg_56" y2="1591" x2="1340.5" y1="1475" x1="1331.5" fill-opacity="null" stroke-opacity="null" stroke-width="22" stroke="#ffffff" fill="none"/>
  <line stroke-linecap="null" stroke-linejoin="null" id="svg_57" y2="1226" x2="1447.5" y1="1158" x1="1200.5" fill-opacity="null" stroke-opacity="null" stroke-width="22" stroke="#ffffff" fill="none"/>
  <line stroke-linecap="null" stroke-linejoin="null" id="svg_58" y2="1115" x2="1160.5" y1="886" x1="1121.5" fill-opacity="null" stroke-opacity="null" stroke-width="22" stroke="#ffffff" fill="none"/>
  <line stroke-linecap="null" stroke-linejoin="null" id="svg_59" y2="871" x2="1322.5" y1="726" x1="1252.5" fill-opacity="null" stroke-opacity="null" stroke-width="22" stroke="#ffffff" fill="none"/>
  <line stroke-linecap="null" stroke-linejoin="null" id="svg_60" y2="606" x2="1440.5" y1="681" x1="1270.5" fill-opacity="null" stroke-opacity="null" stroke-width="22" stroke="#ffffff" fill="none"/>
  <line stroke-linecap="null" stroke-linejoin="null" id="svg_61" y2="458" x2="1309.5" y1="401" x1="1209.5" fill-opacity="null" stroke-opacity="null" stroke-width="22" stroke="#ffffff" fill="none"/>
 </g>
</svg>