<svg width="1420" height="1687" xmlns="http://www.w3.org/2000/svg">
 <!-- Created with Method Draw - http://github.com/duopixel/Method-Draw/ -->

 <g>
  <title>background</title>
  <rect fill="none" id="canvas_background" height="1689" width="1422" y="-1" x="-1"/>
  <g display="none" id="canvasGrid">
   <rect fill="url(#gridpattern)" stroke-width="0" y="0" x="0" height="100%" width="100%" id="svg_2"/>
  </g>
 </g>
 <g>
  <title>Layer 1</title>
  <ellipse ry="30.999999" rx="30.999999" id="svg_1" cy="91.000002" cx="138.499999" stroke-width="22" stroke="#ffffff" fill="none"/>
  <ellipse ry="30.999999" rx="30.999999" id="svg_4" cy="238.000002" cx="219.499999" stroke-width="22" stroke="#ffffff" fill="none"/>
  <ellipse ry="30.999999" rx="30.999999" id="svg_5" cy="295.000002" cx="82.499999" stroke-width="22" stroke="#ffffff" fill="none"/>
  <ellipse ry="30.999999" rx="30.999999" id="svg_6" cy="344.000002" cx="346.499999" stroke-width="22" stroke="#ffffff" fill="none"/>
  <ellipse ry="30.999999" rx="30.999999" id="svg_18" cy="110.000002" cx="1245.499999" stroke-width="22" stroke="#ffffff" fill="none"/>
  <ellipse ry="30.999999" rx="30.999999" id="svg_19" cy="250.000002" cx="1172.499999" stroke-width="22" stroke="#ffffff" fill="none"/>
  <ellipse ry="30.999999" rx="30.999999" id="svg_20" cy="295.000002" cx="1324.499999" stroke-width="22" stroke="#ffffff" fill="none"/>
  <line stroke-linecap="null" stroke-linejoin="null" id="svg_27" y2="-48" x2="42.5" y1="60" x1="126.5" stroke-width="22" stroke="#ffffff" fill="none"/>
  <path id="svg_3" d="m127.5,127l-34,137"/>
  <path id="svg_13" d="m127.5,127l-34,137"/>
  <line transform="rotate(0.468016, 110.5, 195.5)" stroke-linecap="null" stroke-linejoin="null" id="svg_29" y2="264" x2="93.5" y1="127" x1="127.5" stroke-width="22" stroke="#ffffff" fill="none"/>
  <line stroke-linecap="null" stroke-linejoin="null" id="svg_31" y2="236" x2="-35.5" y1="281" x1="48.5" stroke-width="22" stroke="#ffffff" fill="none"/>
  <line stroke-linecap="null" stroke-linejoin="null" id="svg_32" y2="162" x2="340.5" y1="223" x1="244.5" stroke-width="22" stroke="#ffffff" fill="none"/>
  <line stroke-linecap="null" stroke-linejoin="null" id="svg_33" y2="-70" x2="186.5" y1="174" x1="342.5" stroke-width="22" stroke="#ffffff" fill="none"/>
  <line stroke-linecap="null" stroke-linejoin="null" id="svg_35" y2="-44.000003" x2="1129.5" y1="88" x1="1228.5" fill-opacity="null" stroke-opacity="null" stroke-width="22" stroke="#ffffff" fill="none"/>
  <line stroke-linecap="null" stroke-linejoin="null" id="svg_50" y2="225" x2="1188.5" y1="138" x1="1233.5" fill-opacity="null" stroke-opacity="null" stroke-width="22" stroke="#ffffff" fill="none"/>
  <line stroke-linecap="null" stroke-linejoin="null" id="svg_51" y2="408" x2="1215.5" y1="282" x1="1181.5" fill-opacity="null" stroke-opacity="null" stroke-width="22" stroke="#ffffff" fill="none"/>
  <line stroke-linecap="null" stroke-linejoin="null" id="svg_52" y2="-11" x2="1384.5" y1="265" x1="1331.5" fill-opacity="null" stroke-opacity="null" stroke-width="22" stroke="#ffffff" fill="none"/>
  <ellipse ry="30.999999" rx="30.999999" id="svg_7" cy="344.000002" cx="346.499999" stroke-width="22" stroke="#ffffff" fill="none"/>
  <ellipse ry="30.999999" rx="30.999999" id="svg_8" cy="492.000002" cx="192.499999" stroke-width="22" stroke="#ffffff" fill="none"/>
  <ellipse ry="30.999999" rx="30.999999" id="svg_9" cy="492.000002" cx="192.499999" stroke-width="22" stroke="#ffffff" fill="none"/>
  <ellipse ry="30.999999" rx="30.999999" id="svg_10" cy="641.000002" cx="60.499999" stroke-width="22" stroke="#ffffff" fill="none"/>
  <ellipse ry="30.999999" rx="30.999999" id="svg_11" cy="641.000002" cx="60.499999" stroke-width="22" stroke="#ffffff" fill="none"/>
  <ellipse ry="30.999999" rx="30.999999" id="svg_12" cy="689.000002" cx="257.499999" stroke-width="22" stroke="#ffffff" fill="none"/>
  <line fill="none" stroke="#ffffff" stroke-width="22" stroke-opacity="null" fill-opacity="null" x1="322.5" y1="367" x2="216.5" y2="470" id="svg_14" stroke-linejoin="null" stroke-linecap="null"/>
  <line fill="none" stroke="#ffffff" stroke-width="22" stroke-opacity="null" fill-opacity="null" x1="49.5" y1="610" x2="-45.5" y2="296" id="svg_15" stroke-linejoin="null" stroke-linecap="null"/>
  <line fill="none" stroke="#ffffff" stroke-width="22" stroke-opacity="null" fill-opacity="null" x1="200.5" y1="525" x2="245.5" y2="658" id="svg_16" stroke-linejoin="null" stroke-linecap="null"/>
  <ellipse ry="30.999999" rx="30.999999" id="svg_17" cy="823.000002" cx="126.499999" stroke-width="22" stroke="#ffffff" fill="none"/>
  <ellipse ry="30.999999" rx="30.999999" id="svg_21" cy="823.000002" cx="126.499999" stroke-width="22" stroke="#ffffff" fill="none"/>
  <ellipse ry="30.999999" rx="30.999999" id="svg_22" cy="951.000002" cx="226.499999" stroke-width="22" stroke="#ffffff" fill="none"/>
  <ellipse ry="30.999999" rx="30.999999" id="svg_23" cy="1127.000002" cx="107.499999" stroke-width="22" stroke="#ffffff" fill="none"/>
  <ellipse ry="30.999999" rx="30.999999" id="svg_24" cy="1098.000002" cx="321.499999" stroke-width="22" stroke="#ffffff" fill="none"/>
  <ellipse ry="30.999999" rx="30.999999" id="svg_25" cy="1464.000002" cx="176.499999" stroke-width="22" stroke="#ffffff" fill="none"/>
  <ellipse ry="30.999999" rx="30.999999" id="svg_26" cy="1277.000002" cx="287.499999" stroke-width="22" stroke="#ffffff" fill="none"/>
  <ellipse ry="30.999999" rx="30.999999" id="svg_28" cy="1634.000002" cx="127.499999" stroke-width="22" stroke="#ffffff" fill="none"/>
  <ellipse ry="30.999999" rx="30.999999" id="svg_30" cy="1533.000002" cx="333.499999" stroke-width="22" stroke="#ffffff" fill="none"/>
  <line fill="none" stroke="#ffffff" stroke-width="22" stroke-opacity="null" fill-opacity="null" x1="114.5" y1="1162" x2="170.5" y2="1433" id="svg_34" stroke-linejoin="null" stroke-linecap="null" transform="rotate(0.408347, 142.5, 1297.5)"/>
  <line fill="none" stroke="#ffffff" stroke-width="22" stroke-opacity="null" fill-opacity="null" x1="240.5" y1="976" x2="303.5" y2="1070" id="svg_36" stroke-linejoin="null" stroke-linecap="null"/>
  <line fill="none" stroke="#ffffff" stroke-width="22" stroke-opacity="null" fill-opacity="null" x1="318.5" y1="1126" x2="293.5" y2="1240" id="svg_37" stroke-linejoin="null" stroke-linecap="null"/>
  <line fill="none" stroke="#ffffff" stroke-width="22" stroke-opacity="null" fill-opacity="null" x1="103.5" y1="847" x2="-29.5" y2="993" id="svg_39" stroke-linejoin="null" stroke-linecap="null"/>
  <line fill="none" stroke="#ffffff" stroke-width="22" stroke-opacity="null" fill-opacity="null" x1="159.5" y1="1622" x2="304.5" y2="1546" id="svg_40" stroke-linejoin="null" stroke-linecap="null"/>
  <line fill="none" stroke="#ffffff" stroke-width="22" stroke-opacity="null" fill-opacity="null" x1="93.5" y1="1626" x2="-37.5" y2="1571" id="svg_41" stroke-linejoin="null" stroke-linecap="null"/>
  <ellipse ry="30.999999" rx="30.999999" id="svg_42" cy="513.000002" cx="1077.499999" stroke-width="22" stroke="#ffffff" fill="none"/>
  <ellipse ry="30.999999" rx="30.999999" id="svg_43" cy="694.000002" cx="1238.499999" stroke-width="22" stroke="#ffffff" fill="none"/>
  <ellipse ry="30.999999" rx="30.999999" id="svg_44" cy="858.000002" cx="1117.499999" stroke-width="22" stroke="#ffffff" fill="none"/>
  <ellipse ry="30.999999" rx="30.999999" id="svg_45" cy="470.000002" cx="1338.499999" stroke-width="22" stroke="#ffffff" fill="none"/>
  <ellipse ry="30.999999" rx="30.999999" id="svg_46" cy="896.000002" cx="1336.499999" stroke-width="22" stroke="#ffffff" fill="none"/>
  <ellipse ry="30.999999" rx="30.999999" id="svg_47" cy="1153.000002" cx="1167.499999" stroke-width="22" stroke="#ffffff" fill="none"/>
  <ellipse ry="30.999999" rx="30.999999" id="svg_48" cy="1444.000002" cx="1326.499999" stroke-width="22" stroke="#ffffff" fill="none"/>
  <ellipse ry="30.999999" rx="30.999999" id="svg_49" cy="1344.000002" cx="1150.499999" stroke-width="22" stroke="#ffffff" fill="none"/>
  <ellipse ry="30.999999" rx="30.999999" id="svg_53" cy="1585.000002" cx="1050.499999" stroke-width="22" stroke="#ffffff" fill="none"/>
  <ellipse ry="30.999999" rx="30.999999" id="svg_54" cy="1620.000002" cx="1343.499999" stroke-width="22" stroke="#ffffff" fill="none"/>
  <line fill="none" stroke="#ffffff" stroke-width="22" stroke-opacity="null" fill-opacity="null" x1="1177.5" y1="1361" x2="1300.5" y2="1436" id="svg_55" stroke-linejoin="null" stroke-linecap="null"/>
  <line fill="none" stroke="#ffffff" stroke-width="22" stroke-opacity="null" fill-opacity="null" x1="1331.5" y1="1475" x2="1340.5" y2="1591" id="svg_56" stroke-linejoin="null" stroke-linecap="null"/>
  <line fill="none" stroke="#ffffff" stroke-width="22" stroke-opacity="null" fill-opacity="null" x1="1200.5" y1="1158" x2="1447.5" y2="1226" id="svg_57" stroke-linejoin="null" stroke-linecap="null"/>
  <line fill="none" stroke="#ffffff" stroke-width="22" stroke-opacity="null" fill-opacity="null" x1="1121.5" y1="886" x2="1160.5" y2="1115" id="svg_58" stroke-linejoin="null" stroke-linecap="null"/>
  <line fill="none" stroke="#ffffff" stroke-width="22" stroke-opacity="null" fill-opacity="null" x1="1252.5" y1="726" x2="1322.5" y2="871" id="svg_59" stroke-linejoin="null" stroke-linecap="null"/>
  <line fill="none" stroke="#ffffff" stroke-width="22" stroke-opacity="null" fill-opacity="null" x1="1270.5" y1="681" x2="1440.5" y2="606" id="svg_60" stroke-linejoin="null" stroke-linecap="null"/>
  <line fill="none" stroke="#ffffff" stroke-width="22" stroke-opacity="null" fill-opacity="null" x1="1209.5" y1="401" x2="1309.5" y2="458" id="svg_61" stroke-linejoin="null" stroke-linecap="null"/>
 </g>
</svg>